<svg xmlns="http://www.w3.org/2000/svg" width="17.052" height="17.048" viewBox="0 0 17.052 17.048"><defs><style>.a{fill:#5064cc;}</style></defs><g transform="translate(0 0)"><path class="a" d="M15.758,5.786a4.741,4.741,0,0,0,.08-.864A4.872,4.872,0,0,0,6.385,3.268a2.436,2.436,0,0,0-3.27,1.695,3.654,3.654,0,0,0,.542,7.269H6.7a.609.609,0,1,0,0-1.218H3.657a2.436,2.436,0,1,1,0-4.872.609.609,0,0,0,.609-.609,1.218,1.218,0,0,1,2.071-.868.609.609,0,0,0,1.029-.336,3.651,3.651,0,0,1,7.2,1.2q-.03.178-.077.352a.609.609,0,0,0,.252.67A2.436,2.436,0,0,1,13.4,11.013H11.575a.609.609,0,1,0,0,1.218H13.4a3.654,3.654,0,0,0,2.356-6.445Z" transform="translate(-0.001 -0.056)"/></g><g transform="translate(5.491 5.476)"><path class="a" d="M160.974,160.978a.609.609,0,0,0-.846,0l-2.007,2.006V154.1a.609.609,0,1,0-1.218,0v8.884l-2.006-2.006a.609.609,0,0,0-.861.861l3.045,3.045a.609.609,0,0,0,.861,0h0l3.045-3.045A.609.609,0,0,0,160.974,160.978Z" transform="translate(-153.865 -153.491)"/></g></svg>