<svg xmlns="http://www.w3.org/2000/svg" width="61.572" height="61.557" viewBox="0 0 61.572 61.557"><defs><style>.a{fill:#fff;}</style></defs><g transform="translate(-0.001 -0.056)"><g transform="translate(0.001 0.056)"><path class="a" d="M56.9,20.746a17.117,17.117,0,0,0,.29-3.118,17.593,17.593,0,0,0-34.133-5.975,8.8,8.8,0,0,0-11.807,6.12A13.2,13.2,0,0,0,13.2,44.018h11a2.2,2.2,0,0,0,0-4.4h-11a8.8,8.8,0,1,1,0-17.593,2.2,2.2,0,0,0,2.2-2.2,4.4,4.4,0,0,1,7.477-3.134,2.2,2.2,0,0,0,3.714-1.214A13.182,13.182,0,0,1,52.6,19.8q-.107.642-.277,1.272a2.2,2.2,0,0,0,.908,2.419A8.8,8.8,0,0,1,48.39,39.62h-6.6a2.2,2.2,0,1,0,0,4.4h6.6A13.195,13.195,0,0,0,56.9,20.746Z" transform="translate(-0.001 -0.056)"/></g><g transform="translate(19.827 19.827)"><path class="a" d="M179.534,180.525a2.2,2.2,0,0,0-3.055,0l-7.246,7.242V155.69a2.2,2.2,0,1,0-4.4,0v32.077l-7.242-7.242a2.2,2.2,0,0,0-3.11,3.11l11,11a2.2,2.2,0,0,0,3.11,0l0,0,11-11A2.2,2.2,0,0,0,179.534,180.525Z" transform="translate(-153.865 -153.491)"/></g></g></svg>