<svg width="173" height="160" viewBox="0 0 173 160" fill="none" xmlns="http://www.w3.org/2000/svg">
<g opacity="0.125">
<path opacity="0.125" d="M86.1292 159.306C126.753 159.306 159.684 126.656 159.684 86.3792C159.684 46.1027 126.753 13.4521 86.1292 13.4521C45.5059 13.4521 12.5742 46.1027 12.5742 86.3792C12.5742 126.656 45.5059 159.306 86.1292 159.306Z" fill="white"/>
<path opacity="0.125" d="M86.1292 156.806C125.372 156.806 157.184 125.275 157.184 86.3792C157.184 47.4834 125.372 15.9521 86.1292 15.9521C46.8866 15.9521 15.0742 47.4834 15.0742 86.3792C15.0742 125.275 46.8866 156.806 86.1292 156.806Z" stroke="#646464" stroke-width="5"/>
</g>
<path d="M86.7584 122.841C106.896 122.841 123.221 106.516 123.221 86.378C123.221 66.2401 106.896 49.915 86.7584 49.915C66.6205 49.915 50.2954 66.2401 50.2954 86.378C50.2954 106.516 66.6205 122.841 86.7584 122.841Z" fill="#00B944"/>
<g filter="url(#filter0_d)">
<path d="M64.5918 89.5576L79.0117 101.84L107.426 75.8765L101.158 69.1055L79.0117 89.5566L70.5938 82.3435L64.5918 89.5576Z" fill="white"/>
</g>
<path opacity="0.132" d="M35.2271 26.7223C33.937 25.3877 31.8093 25.3516 30.4747 26.6416C29.14 27.9317 29.1039 30.0595 30.394 31.3941L58.4234 60.3914C59.7134 61.726 61.8412 61.7621 63.1758 60.472C64.5104 59.182 64.5465 57.0542 63.2565 55.7196L35.2271 26.7223Z" fill="#646464"/>
<path opacity="0.132" d="M14.3001 28.1984L14.2994 28.1991C13.8547 28.629 13.8426 29.3381 14.2725 29.7828L45.4169 62.0026C45.8468 62.4474 46.5558 62.4594 47.0006 62.0295L47.0013 62.0288C47.446 61.5989 47.4581 60.8899 47.0282 60.4452L15.8838 28.2253C15.4539 27.7806 14.7449 27.7685 14.3001 28.1984Z" fill="#646464"/>
<path opacity="0.132" d="M146.494 115.581L146.493 115.582C146.049 116.012 146.036 116.721 146.466 117.166L168.268 139.72C168.698 140.165 169.407 140.177 169.852 139.747L169.852 139.746C170.297 139.316 170.309 138.607 169.879 138.162L148.078 115.608C147.648 115.163 146.939 115.151 146.494 115.581Z" fill="#646464"/>
<path opacity="0.132" d="M148.734 131.266L148.734 131.267C148.289 131.696 148.277 132.405 148.707 132.85L170.508 155.405C170.938 155.849 171.647 155.861 172.092 155.431L172.092 155.431C172.537 155.001 172.549 154.292 172.119 153.847L150.318 131.293C149.888 130.848 149.179 130.836 148.734 131.266Z" fill="#646464"/>
<path opacity="0.132" d="M160.549 113.737C159.689 112.847 158.271 112.823 157.381 113.683C156.491 114.543 156.467 115.962 157.328 116.852L165.891 125.711C166.751 126.601 168.17 126.625 169.06 125.765C169.949 124.905 169.973 123.487 169.113 122.597L160.549 113.737Z" fill="#646464"/>
<path opacity="0.132" d="M8.69809 66.2893L8.69737 66.29C8.25263 66.7199 8.24059 67.4289 8.67049 67.8736L39.8148 100.093C40.2447 100.538 40.9538 100.55 41.3985 100.12L41.3992 100.12C41.844 99.6898 41.856 98.9807 41.4261 98.536L10.2818 66.3161C9.85187 65.8714 9.14283 65.8594 8.69809 66.2893Z" fill="#646464"/>
<path opacity="0.132" d="M32.224 10.2736L32.2232 10.2743C31.7785 10.7042 31.7665 11.4133 32.1964 11.858L63.3407 44.0778C63.7706 44.5226 64.4796 44.5346 64.9244 44.1047L64.9251 44.104C65.3698 43.6741 65.3819 42.9651 64.952 42.5203L33.8076 10.3005C33.3777 9.85578 32.6687 9.84374 32.224 10.2736Z" fill="#646464"/>
<path opacity="0.132" d="M26.2642 64.8131C24.9741 63.4785 22.8464 63.4424 21.5118 64.7325C20.1771 66.0225 20.141 68.1503 21.4311 69.4849L49.4605 98.4822C50.7505 99.8168 52.8783 99.8529 54.2129 98.5629C55.5475 97.2728 55.5837 95.145 54.2936 93.8104L26.2642 64.8131Z" fill="#646464"/>
<path d="M8.8 115.299C13.6601 115.299 17.6 111.359 17.6 106.497C17.6 101.636 13.6601 97.6953 8.8 97.6953C3.93989 97.6953 0 101.636 0 106.497C0 111.359 3.93989 115.299 8.8 115.299Z" fill="#52F1EC"/>
<path d="M76.0689 43.6291C78.499 43.6291 80.4689 41.6588 80.4689 39.2281C80.4689 36.7975 78.499 34.8271 76.0689 34.8271C73.6389 34.8271 71.6689 36.7975 71.6689 39.2281C71.6689 41.6588 73.6389 43.6291 76.0689 43.6291Z" fill="#52F1EC"/>
<path opacity="0.497" d="M16.3442 17.2237C18.4263 17.2237 20.1142 15.5349 20.1142 13.4517C20.1142 11.3685 18.4263 9.67969 16.3442 9.67969C14.2621 9.67969 12.5742 11.3685 12.5742 13.4517C12.5742 15.5349 14.2621 17.2237 16.3442 17.2237Z" fill="#5064CC"/>
<path opacity="0.781" d="M139.32 9.67993C141.751 9.67993 143.721 7.70953 143.721 5.27893C143.721 2.84832 141.751 0.87793 139.32 0.87793C136.889 0.87793 134.919 2.84832 134.919 5.27893C134.919 7.70953 136.889 9.67993 139.32 9.67993Z" fill="#5064CC"/>
<path d="M85.5 34.3259C94.9457 34.3259 102.603 26.9503 102.603 17.8519C102.603 8.75359 94.9457 1.37793 85.5 1.37793C76.0542 1.37793 68.397 8.75359 68.397 17.8519C68.397 26.9503 76.0542 34.3259 85.5 34.3259Z" stroke="#EBEBEB" stroke-dasharray="3 3"/>
<path d="M148.997 147.489C161.567 147.489 171.758 137.017 171.758 124.099C171.758 111.181 161.567 100.709 148.997 100.709C136.426 100.709 126.236 111.181 126.236 124.099C126.236 137.017 136.426 147.489 148.997 147.489Z" stroke="#EBEBEB" stroke-dasharray="3 3"/>
<path d="M129.508 159.305C135.064 159.305 139.567 154.801 139.567 149.246C139.567 143.69 135.064 139.187 129.508 139.187C123.953 139.187 119.449 143.69 119.449 149.246C119.449 154.801 123.953 159.305 129.508 159.305Z" fill="#5064CC"/>
<defs>
<filter id="filter0_d" x="57.5918" y="69.1055" width="56.834" height="46.7341" filterUnits="userSpaceOnUse" color-interpolation-filters="sRGB">
<feFlood flood-opacity="0" result="BackgroundImageFix"/>
<feColorMatrix in="SourceAlpha" type="matrix" values="0 0 0 0 0 0 0 0 0 0 0 0 0 0 0 0 0 0 127 0"/>
<feOffset dy="7"/>
<feGaussianBlur stdDeviation="3.5"/>
<feColorMatrix type="matrix" values="0 0 0 0 0 0 0 0 0 0 0 0 0 0 0 0 0 0 0.161 0"/>
<feBlend mode="normal" in2="BackgroundImageFix" result="effect1_dropShadow"/>
<feBlend mode="normal" in="SourceGraphic" in2="effect1_dropShadow" result="shape"/>
</filter>
</defs>
</svg>
