<svg xmlns="http://www.w3.org/2000/svg" width="24" height="23.999" viewBox="0 0 24 23.999"><defs><style>.a{fill:#5064cc;}</style></defs><g transform="translate(0 -0.001)"><path class="a" d="M16.12,1.929,5.229,7.505.9,5.375,11.6.092a.877.877,0,0,1,.78,0Z"/><path class="a" d="M23.088,5.375l-11.082,5.49L7.856,8.82l-.6-.305,10.9-5.575.6.3Z"/><path class="a" d="M11.118,12.447,11.106,24,.492,18.461A.927.927,0,0,1,0,17.645V6.957L4.5,9.173v3.9a.9.9,0,1,0,1.8,0V10.074l.6.292Z"/><path class="a" d="M23.988,6.969l-11.07,5.466-.012,11.553L24,18.195Z"/></g></svg>