<svg xmlns="http://www.w3.org/2000/svg" width="16.434" height="21.224" viewBox="0 0 16.434 21.224"><defs><style>.a{fill:#44099f;}.b{fill:#52f1ec;}</style></defs><path class="a" d="M71.177,6.635S70.321,8.885,68.7,8.4c-1.355-.406-1.277-2.244-.626-3.76C69.2,2.012,65.978,0,65.978,0s.05,2.664-2,3.679A2.974,2.974,0,0,0,62.56,7.862a1.531,1.531,0,0,1-.753,2.394c-1.8.722-2.844-1.511-2.844-1.511a8.217,8.217,0,0,0,6.964,12.478A3.8,3.8,0,0,1,62.2,17.434a6.323,6.323,0,0,1,.584-2.6l.219-.5,1.111.325a4.191,4.191,0,0,1,1.325-2.292,4.686,4.686,0,0,1,1.369-.876l.757-.287.082.805a4.847,4.847,0,0,0,.65,2.084c.317.518.612.952.956,1.445a3.308,3.308,0,0,1,.532,1.894,3.793,3.793,0,0,1-3.794,3.791h0A8.216,8.216,0,0,0,71.177,6.635Z" transform="translate(-57.772 0)"/><path class="b" d="M199.577,319.211a2.1,2.1,0,0,0-.309-1.178c-.309-.442-.643-.931-1-1.508a5.606,5.606,0,0,1-.678-1.692,3.019,3.019,0,0,0-1.287,2.424l-.015.813-1.533-.448a4.691,4.691,0,0,0-.281,1.583v.008a2.55,2.55,0,0,0,5.1,0Z" transform="translate(-188.81 -301.783)"/></svg>