<?xml version="1.0" encoding="iso-8859-1"?>
<!-- Generator: Adobe Illustrator 19.0.0, SVG Export Plug-In . SVG Version: 6.00 Build 0)  -->
<svg version="1.1" id="Capa_1" xmlns="http://www.w3.org/2000/svg" xmlns:xlink="http://www.w3.org/1999/xlink" x="0px" y="0px"
	 viewBox="0 0 512 512" style="enable-background:new 0 0 512 512; fill:#64FFDA;" xml:space="preserve">
<g>
	<g>
		<g>
			<path d="M501.333,234.667h-11.747C479.397,122.283,389.717,32.603,277.333,22.414V10.667C277.333,4.771,272.563,0,266.667,0
				h-21.333c-5.896,0-10.667,4.771-10.667,10.667v11.747C122.283,32.603,32.603,122.283,22.414,234.667H10.667
				C4.771,234.667,0,239.438,0,245.333v21.333c0,5.896,4.771,10.667,10.667,10.667h11.747
				c10.189,112.384,99.868,202.064,212.253,212.253v11.747c0,5.896,4.771,10.667,10.667,10.667h21.333
				c5.896,0,10.667-4.771,10.667-10.667v-11.747c112.384-10.189,202.064-99.868,212.253-212.253h11.747
				c5.896,0,10.667-4.771,10.667-10.667v-21.333C512,239.438,507.229,234.667,501.333,234.667z M426.667,277.333h20.074
				c-9.875,88.837-80.561,159.533-169.408,169.409v-20.076c0-5.896-4.771-10.667-10.667-10.667h-21.333
				c-5.896,0-10.667,4.771-10.667,10.667v20.076c-88.846-9.876-159.533-80.572-169.408-169.409h20.074
				c5.896,0,10.667-4.771,10.667-10.667v-21.333c0-5.896-4.771-10.667-10.667-10.667H65.259
				c9.875-88.837,80.561-159.533,169.408-169.409v20.076c0,5.896,4.771,10.667,10.667,10.667h21.333
				c5.896,0,10.667-4.771,10.667-10.667V65.258c88.846,9.876,159.533,80.572,169.408,169.409h-20.074
				c-5.896,0-10.667,4.771-10.667,10.667v21.333C416,272.563,420.771,277.333,426.667,277.333z"/>
			<circle cx="256" cy="202.667" r="53.333"/>
			<path d="M328.958,288.677c-17.042-10.042-43.542-22.01-72.958-22.01s-55.917,11.969-72.958,22.01
				C168.833,297.063,160,313.344,160,331.167V338c0,13.604,10.25,24.667,22.854,24.667h146.292C341.75,362.667,352,351.604,352,338
				v-6.833C352,313.344,343.167,297.063,328.958,288.677z"/>
		</g>
	</g>
</g>
<g>
</g>
<g>
</g>
<g>
</g>
<g>
</g>
<g>
</g>
<g>
</g>
<g>
</g>
<g>
</g>
<g>
</g>
<g>
</g>
<g>
</g>
<g>
</g>
<g>
</g>
<g>
</g>
<g>
</g>
</svg>
